<?xml version="1.0" standalone="no"?>
<!DOCTYPE svg PUBLIC "-//W3C//DTD SVG 20010904//EN"
 "http://www.w3.org/TR/2001/REC-SVG-20010904/DTD/svg10.dtd">
<svg version="1.0" xmlns="http://www.w3.org/2000/svg"
 width="280.00px" height="111.00px" viewBox="0 0 2800.000000 1110.000000"
 preserveAspectRatio="xMidYMid meet">
<defs>
<linearGradient id="mirPurpleGradient" x1="0%" y1="0%" x2="100%" y2="100%">
<stop offset="0%" stop-color="#7A64C0"/>
<stop offset="100%" stop-color="#3B2260"/>
</linearGradient>
</defs>
<metadata>
Created by potrace 1.16, written by Peter Selinger 2001-2019
</metadata>
<g transform="translate(0.000000,1110.000000) scale(0.100000,-0.100000)"
fill="url(#mirPurpleGradient)" stroke="none">
<path d="M16134 9790 c-135 -15 -301 -80 -417 -164 -77 -54 -202 -183 -250
-256 -50 -75 -134 -270 -148 -342 -7 -36 -10 -119 -7 -220 5 -158 6 -166 43
-263 48 -129 87 -207 137 -273 64 -86 183 -197 278 -261 144 -96 228 -115 515
-114 236 0 307 12 428 74 208 105 312 210 416 418 64 127 75 190 75 436 0 225
-10 300 -50 398 -58 144 -224 343 -346 415 -80 48 -231 111 -313 132 -84 22
-262 32 -361 20z M5380 9669 c-212 -4 -421 -10 -465 -14 -157 -13 -293 -52
-371 -106 -113 -77 -354 -324 -522 -534 -53 -66 -162 -187 -242 -270 -81 -82
-184 -193 -230 -245 -46 -52 -165 -181 -264 -286 -100 -104 -215 -235 -256
-290 -118 -157 -194 -244 -405 -469 -108 -115 -244 -268 -302 -340 -58 -71
-219 -251 -358 -400 -284 -304 -321 -345 -388 -432 -165 -214 -247 -423 -268
-683 -15 -177 0 -270 71 -440 113 -270 221 -408 739 -944 112 -116 245 -263
296 -326 51 -63 189 -221 306 -350 262 -289 306 -340 395 -460 75 -100 168
-204 488 -545 109 -115 240 -265 293 -333 52 -67 143 -173 201 -235 394 -422
438 -463 540 -510 46 -22 56 -22 654 -25 419 -2 614 1 628 8 25 13 26 53 2 88
-10 15 -26 55 -35 90 -17 62 -31 89 -152 297 -32 55 -118 219 -192 365 -174
341 -238 462 -338 640 -46 80 -139 253 -208 385 -193 371 -283 538 -367 685
-42 74 -123 218 -180 320 -56 102 -106 190 -110 195 -4 6 -70 129 -145 275
-76 146 -162 306 -190 355 -70 119 -100 193 -121 295 -19 97 -15 169 17 262
18 55 239 508 319 653 15 28 46 86 70 130 24 44 78 134 120 200 101 160 145
238 363 650 102 193 218 406 257 475 40 69 130 236 200 371 143 275 167 318
255 469 34 58 124 227 200 375 75 149 157 304 180 345 52 90 85 171 85 208 0
58 -50 96 -135 104 -27 2 -223 1 -435 -3z M22170 9670 c-76 -10 -120 -47 -120
-102 0 -37 33 -118 85 -208 23 -41 105 -196 180 -345 76 -148 166 -317 200
-375 88 -151 112 -194 255 -469 70 -135 160 -302 200 -371 39 -69 155 -282
257 -475 218 -412 262 -490 363 -650 42 -66 96 -156 120 -200 24 -44 55 -102
70 -130 80 -145 301 -598 319 -653 32 -93 36 -165 17 -262 -21 -102 -51 -176
-121 -295 -28 -49 -114 -209 -190 -355 -75 -146 -141 -269 -145 -275 -4 -5
-54 -93 -110 -195 -57 -102 -138 -246 -180 -320 -84 -147 -174 -314 -367 -685
-69 -132 -162 -305 -208 -385 -100 -178 -164 -299 -338 -640 -74 -146 -160
-310 -192 -365 -121 -208 -135 -235 -152 -297 -9 -35 -25 -75 -35 -90 -24 -35
-23 -75 2 -88 14 -7 209 -10 628 -8 598 3 608 3 654 25 102 47 146 88 540 510
58 62 149 168 201 235 53 68 184 218 293 333 320 341 413 445 488 545 89 120
133 171 395 460 117 129 255 287 306 350 51 63 184 210 296 326 518 536 626
674 739 944 71 170 86 263 71 440 -21 260 -103 469 -268 683 -67 87 -104 128
-388 432 -139 149 -300 329 -358 400 -58 72 -194 225 -302 340 -211 225 -287
312 -405 469 -41 55 -156 186 -256 290 -99 105 -218 234 -264 286 -46 52 -149
163 -230 245 -80 83 -189 204 -242 270 -108 135 -309 352 -409 443 -176 158
-266 186 -644 202 -289 12 -693 17 -755 10z M8785 9600 c-192 -8 -257 -17
-382 -54 -43 -13 -125 -34 -183 -46 -194 -42 -510 -189 -663 -308 -155 -120
-321 -259 -364 -303 -60 -63 -220 -266 -302 -385 -195 -281 -348 -663 -396
-988 -14 -94 -34 -205 -45 -246 -11 -41 -25 -140 -30 -220 -7 -98 -10 -1020
-8 -2830 3 -2559 4 -2687 21 -2725 22 -48 52 -82 92 -103 27 -13 112 -15 735
-13 388 1 766 6 840 12 148 11 176 22 194 75 7 19 12 807 16 2304 6 2011 8
2287 22 2375 11 70 18 208 23 460 11 624 36 726 225 916 125 127 158 145 388
218 237 74 268 72 491 -36 93 -46 128 -69 191 -129 47 -45 89 -97 108 -131 44
-84 119 -314 133 -413 10 -66 13 -393 11 -1445 0 -748 3 -1488 8 -1645 8 -281
9 -287 44 -420 19 -74 42 -175 51 -225 10 -49 28 -119 42 -155 14 -36 40 -109
59 -163 69 -197 229 -482 388 -691 125 -166 404 -429 571 -540 159 -106 524
-288 660 -329 28 -9 103 -32 168 -52 148 -45 186 -52 372 -65 282 -21 891 -9
1060 21 81 14 343 101 474 156 151 64 335 165 425 232 158 118 443 395 567
551 43 53 164 239 236 360 82 139 156 317 263 627 21 62 73 198 114 302 41
104 89 226 105 272 86 242 144 396 191 504 55 126 119 297 200 530 26 77 73
205 105 285 76 195 160 433 195 555 16 55 38 123 49 151 41 107 55 216 55 444
1 252 -8 298 -84 455 -89 185 -256 361 -401 423 -65 28 -319 92 -365 92 -44 0
-292 -51 -369 -76 -27 -9 -95 -39 -150 -68 -169 -87 -272 -199 -379 -413 -65
-130 -78 -163 -153 -373 -131 -371 -157 -443 -203 -580 -26 -80 -80 -226 -118
-325 -103 -264 -161 -423 -272 -740 -21 -60 -66 -177 -100 -260 -34 -82 -101
-265 -149 -405 -138 -400 -207 -529 -366 -687 -80 -79 -106 -98 -196 -142
-139 -67 -208 -84 -344 -85 -131 0 -201 16 -323 76 -161 78 -270 187 -359 355
-42 80 -62 135 -105 298 l-53 200 0 1515 0 1515 28 80 c80 226 172 379 271
452 119 88 299 164 437 183 83 12 177 6 258 -16 79 -22 218 -89 277 -134 103
-78 239 -310 290 -495 22 -78 34 -304 43 -770 8 -461 10 -479 59 -492 20 -5
31 0 52 24 25 28 119 249 179 423 16 47 57 164 90 260 67 190 121 345 199 570
27 80 76 206 107 280 32 74 75 182 96 240 20 58 64 170 97 250 33 80 89 233
125 340 55 163 68 214 78 309 21 207 0 342 -69 444 -42 60 -143 159 -217 211
-66 48 -273 154 -405 209 -96 39 -362 122 -460 143 -205 43 -1036 45 -1275 3
-101 -17 -394 -109 -500 -156 -147 -65 -297 -148 -373 -206 -182 -140 -210
-158 -259 -173 -102 -30 -201 14 -422 184 -173 134 -338 215 -588 288 -222 65
-283 74 -588 84 -291 10 -291 10 -560 0z M20440 9583 c-101 -5 -228 -22 -310
-43 -41 -10 -129 -28 -195 -40 -66 -11 -174 -38 -240 -60 -66 -21 -140 -44
-165 -50 -113 -30 -547 -240 -755 -365 -204 -123 -398 -288 -695 -591 -288
-294 -364 -402 -553 -779 -160 -321 -291 -670 -327 -874 -12 -64 -34 -163 -51
-221 -16 -58 -34 -145 -40 -195 -17 -135 -25 -4753 -9 -4832 15 -68 56 -116
116 -132 24 -6 256 -12 594 -16 427 -4 578 -9 655 -21 144 -22 355 -33 468
-25 115 9 129 18 155 102 16 50 17 206 18 2189 1 1174 4 2171 8 2215 10 136
99 482 157 615 61 137 144 283 209 365 66 83 241 251 320 307 148 104 469 231
655 258 50 8 284 13 630 16 303 2 559 6 571 9 48 11 47 7 55 890 6 714 9 840
23 905 30 136 31 190 7 245 -37 84 -65 112 -121 124 -46 10 -988 13 -1180 4z"/>
</g>
</svg>
